<svg width="48" height="48" viewBox="0 0 48 48" fill="none" xmlns="http://www.w3.org/2000/svg">
<rect opacity="0.2" width="48" height="48" rx="12" fill="url(#paint0_linear_9_2185)"/>
<path d="M23.9999 13.3334C21.7374 13.3359 19.5683 14.2358 17.9685 15.8356C16.3687 17.4354 15.4688 19.6045 15.4663 21.8669C15.4663 25.339 17.9869 28.2223 20.6568 31.2741C21.5017 32.2405 22.3764 33.24 23.155 34.2513C23.2547 34.3805 23.3827 34.4852 23.5291 34.5572C23.6756 34.6293 23.8366 34.6667 23.9999 34.6667C24.1631 34.6667 24.3241 34.6293 24.4706 34.5572C24.6171 34.4852 24.745 34.3805 24.8447 34.2513C25.6234 33.24 26.4981 32.2405 27.3429 31.2741C30.0128 28.2223 32.5334 25.339 32.5334 21.8669C32.5309 19.6045 31.631 17.4354 30.0312 15.8356C28.4314 14.2358 26.2623 13.3359 23.9999 13.3334ZM23.9999 25.067C23.3669 25.067 22.7482 24.8793 22.222 24.5277C21.6957 24.1761 21.2856 23.6763 21.0434 23.0915C20.8012 22.5068 20.7378 21.8634 20.8613 21.2426C20.9847 20.6219 21.2895 20.0517 21.7371 19.6041C22.1846 19.1566 22.7548 18.8518 23.3756 18.7283C23.9963 18.6049 24.6397 18.6682 25.2245 18.9104C25.8092 19.1526 26.309 19.5628 26.6606 20.0891C27.0123 20.6153 27.1999 21.234 27.1999 21.8669C27.1999 22.7156 26.8628 23.5296 26.2627 24.1297C25.6625 24.7299 24.8486 25.067 23.9999 25.067Z" fill="url(#paint1_linear_9_2185)"/>
<defs>
<linearGradient id="paint0_linear_9_2185" x1="56.4706" y1="-1.71573e-06" x2="-9.86176" y2="9.7598" gradientUnits="userSpaceOnUse">
<stop stop-color="#00F2E6"/>
<stop offset="1" stop-color="#00B4F0"/>
</linearGradient>
<linearGradient id="paint1_linear_9_2185" x1="35.5453" y1="13.3334" x2="11.7785" y2="16.131" gradientUnits="userSpaceOnUse">
<stop stop-color="#00F2E6"/>
<stop offset="1" stop-color="#00B4F0"/>
</linearGradient>
</defs>
</svg>
