<svg width="40" height="40" viewBox="0 0 40 40" fill="none" xmlns="http://www.w3.org/2000/svg">
<circle opacity="0.3" cx="20" cy="20" r="20" fill="url(#paint0_linear_63_351)"/>
<path fill-rule="evenodd" clip-rule="evenodd" d="M17.0128 12.0673C17.1145 11.9656 17.2353 11.885 17.3681 11.8299C17.501 11.7749 17.6434 11.7466 17.7872 11.7466C17.931 11.7466 18.0734 11.7749 18.2063 11.8299C18.3392 11.885 18.4599 11.9656 18.5616 12.0673C18.6633 12.169 18.7439 12.2898 18.799 12.4226C18.854 12.5555 18.8823 12.6979 18.8823 12.8417C18.8823 12.9855 18.854 13.1279 18.799 13.2608C18.7439 13.3937 18.6633 13.5144 18.5616 13.6161L14.8315 17.3352H25.1055L21.3755 13.6161C21.1701 13.4107 21.0547 13.1322 21.0547 12.8417C21.0547 12.6979 21.0831 12.5555 21.1381 12.4226C21.1931 12.2898 21.2738 12.169 21.3755 12.0673C21.4772 11.9656 21.5979 11.885 21.7308 11.8299C21.8636 11.7749 22.006 11.7466 22.1499 11.7466C22.4403 11.7466 22.7189 11.862 22.9242 12.0673L27.6032 16.6917C27.7717 16.869 27.8821 17.0935 27.9195 17.3352H29.5991C29.7627 17.3319 29.9249 17.3655 30.0737 17.4333C30.2226 17.5012 30.3543 17.6018 30.459 17.7274C30.5638 17.8531 30.6389 18.0008 30.6788 18.1594C30.7188 18.3181 30.7225 18.4837 30.6897 18.644L27.854 27.3693C27.803 27.6194 27.666 27.8436 27.4667 28.0031C27.2674 28.1625 27.0185 28.247 26.7634 28.2418H13.2282C12.9731 28.247 12.7242 28.1625 12.5249 28.0031C12.3256 27.8436 12.1886 27.6194 12.1376 27.3693L9.30187 18.644C9.26911 18.4837 9.27284 18.3181 9.31278 18.1594C9.35271 18.0008 9.42784 17.8531 9.53258 17.7274C9.63732 17.6018 9.769 17.5012 9.91786 17.4333C10.0667 17.3655 10.2289 17.3319 10.3925 17.3352H12.0721C12.1095 17.0935 12.2199 16.869 12.3884 16.6917L17.0128 12.0673ZM14.5152 20.0619C14.5152 19.9173 14.5727 19.7785 14.675 19.6763C14.7772 19.574 14.9159 19.5166 15.0606 19.5166C15.2052 19.5166 15.3439 19.574 15.4462 19.6763C15.5484 19.7785 15.6059 19.9173 15.6059 20.0619V25.5152C15.6059 25.6598 15.5484 25.7985 15.4462 25.9008C15.3439 26.0031 15.2052 26.0605 15.0606 26.0605C14.9159 26.0605 14.7772 26.0031 14.675 25.9008C14.5727 25.7985 14.5152 25.6598 14.5152 25.5152V20.0619ZM17.7872 20.0619C17.7872 19.9173 17.8447 19.7785 17.9469 19.6763C18.0492 19.574 18.1879 19.5166 18.3325 19.5166C18.4772 19.5166 18.6159 19.574 18.7182 19.6763C18.8204 19.7785 18.8779 19.9173 18.8779 20.0619V25.5152C18.8779 25.6598 18.8204 25.7985 18.7182 25.9008C18.6159 26.0031 18.4772 26.0605 18.3325 26.0605C18.1879 26.0605 18.0492 26.0031 17.9469 25.9008C17.8447 25.7985 17.7872 25.6598 17.7872 25.5152V20.0619ZM21.6045 19.5166C21.4599 19.5166 21.3212 19.574 21.2189 19.6763C21.1166 19.7785 21.0592 19.9173 21.0592 20.0619V25.5152C21.0592 25.6598 21.1166 25.7985 21.2189 25.9008C21.3212 26.0031 21.4599 26.0605 21.6045 26.0605C21.7492 26.0605 21.8879 26.0031 21.9901 25.9008C22.0924 25.7985 22.1499 25.6598 22.1499 25.5152V20.0619C22.1499 19.9173 22.0924 19.7785 21.9901 19.6763C21.8879 19.574 21.7492 19.5166 21.6045 19.5166ZM24.3312 20.0619C24.3312 19.9173 24.3886 19.7785 24.4909 19.6763C24.5932 19.574 24.7319 19.5166 24.8765 19.5166C25.0211 19.5166 25.1598 19.574 25.2621 19.6763C25.3644 19.7785 25.4218 19.9173 25.4218 20.0619V25.5152C25.4218 25.6598 25.3644 25.7985 25.2621 25.9008C25.1598 26.0031 25.0211 26.0605 24.8765 26.0605C24.7319 26.0605 24.5932 26.0031 24.4909 25.9008C24.3886 25.7985 24.3312 25.6598 24.3312 25.5152V20.0619Z" fill="url(#paint1_linear_63_351)"/>
<defs>
<linearGradient id="paint0_linear_63_351" x1="47.0588" y1="-1.42977e-06" x2="-8.21814" y2="8.13316" gradientUnits="userSpaceOnUse">
<stop stop-color="#00F2E6"/>
<stop offset="1" stop-color="#00B4F0"/>
</linearGradient>
<linearGradient id="paint1_linear_63_351" x1="34.4939" y1="11.7466" x2="5.30214" y2="17.3271" gradientUnits="userSpaceOnUse">
<stop stop-color="#00F2E6"/>
<stop offset="1" stop-color="#00B4F0"/>
</linearGradient>
</defs>
</svg>
