<svg width="32" height="32" viewBox="0 0 32 32" fill="none" xmlns="http://www.w3.org/2000/svg">
<path d="M7.11047 26.6668C6.7589 26.6668 6.41525 26.5624 6.12295 26.3669C5.83066 26.1715 5.60285 25.8937 5.46832 25.5687C5.33379 25.2438 5.29858 24.8862 5.36715 24.5412C5.43572 24.1962 5.60498 23.8793 5.85354 23.6305L23.6319 5.84308C23.9663 5.51453 24.4169 5.33139 24.8855 5.33351C25.3542 5.33564 25.8031 5.52285 26.1345 5.85442C26.4659 6.18599 26.653 6.63508 26.6551 7.10399C26.6572 7.57289 26.4742 8.02367 26.1458 8.35822L8.3674 26.1457C8.20254 26.3111 8.00663 26.4423 7.79092 26.5317C7.57522 26.6212 7.34397 26.6671 7.11047 26.6668Z" fill="#BBB9D1"/>
<path d="M24.8889 26.6668C24.6554 26.6671 24.4241 26.6212 24.2084 26.5317C23.9927 26.4423 23.7968 26.3111 23.6319 26.1457L5.85354 8.35822C5.52515 8.02367 5.3421 7.57289 5.34423 7.10399C5.34635 6.63508 5.53347 6.18599 5.86487 5.85442C6.19627 5.52285 6.64514 5.33564 7.1138 5.33351C7.58247 5.33139 8.03301 5.51453 8.3674 5.84308L26.1458 23.6305C26.3944 23.8793 26.5636 24.1962 26.6322 24.5412C26.7008 24.8862 26.6656 25.2438 26.531 25.5687C26.3965 25.8937 26.1687 26.1715 25.8764 26.3669C25.5841 26.5624 25.2404 26.6668 24.8889 26.6668Z" fill="#BBB9D1"/>
</svg>
