<svg width="35" height="726" viewBox="0 0 35 726" fill="none" xmlns="http://www.w3.org/2000/svg">
<g opacity="0.2">
<path d="M30.1514 15.0314V17.9648C30.1514 18.6867 30.1363 19.1835 30.1061 19.4552C30.067 19.8342 30.0072 20.2108 29.9269 20.5833C29.918 21.0058 29.8878 21.4277 29.8364 21.8472C29.7458 22.2409 29.6552 22.6924 29.5647 23.2017C29.5377 23.3716 29.4922 23.5379 29.4288 23.6978C29.3698 23.938 29.3245 24.1034 29.295 24.1939C29.2034 24.5126 29.0661 24.8163 28.8874 25.0956C28.3826 26.3558 27.5952 27.4833 26.586 28.3913C24.57 30.0162 22.8099 31.1147 21.3058 31.687C19.6796 32.1989 17.573 32.4542 14.9861 32.4528H0V0H14.805C20.1324 0 24.0896 1.47461 26.6765 4.42379C28.9931 7.19316 30.1514 10.3228 30.1514 13.8127V15.0314ZM22.6701 15.7992C22.6701 15.0471 22.655 14.4749 22.6248 14.0825C22.5638 13.3599 22.5028 12.8047 22.4437 12.413C22.2337 10.8183 21.8577 9.50972 21.3156 8.48729C20.6226 7.22335 19.6894 6.42535 18.5161 6.09329L16.7107 5.73301L14.7243 5.64243H6.8158V26.8124H14.7144L16.5198 26.7671L17.3329 26.6765L18.1007 26.5407C19.3331 26.2716 20.3562 25.5045 21.1699 24.2392L21.9378 22.4792C21.9591 22.3565 21.9887 22.2355 22.0263 22.1169C22.0874 21.7862 22.1327 21.546 22.1622 21.3944C22.2527 20.975 22.3591 20.3411 22.4792 19.5004C22.5382 19.0188 22.5986 18.4281 22.6603 17.7286V15.7894L22.6701 15.7992Z" fill="white"/>
<path d="M15.1653 170.906L12.2772 170.772L11.2396 170.727C10.9488 170.719 10.6602 170.673 10.3813 170.591C10.2549 170.564 10.1335 170.518 10.021 170.455C9.88356 170.436 9.74792 170.406 9.61543 170.364C6.39456 169.552 3.92706 167.642 2.21294 164.633C0.755023 162.108 -0.00846406 159.243 7.07787e-05 156.327C7.07787e-05 153.319 0.240911 150.791 0.722597 148.744C1.14279 146.773 1.97324 144.913 3.15991 143.284C4.39758 141.572 6.13051 140.28 8.12509 139.583C9.2577 139.201 10.4199 138.914 11.5999 138.725C12.8639 138.543 17.8743 138.453 26.6313 138.453V144.005H15.437C13.2714 144.005 11.5415 144.607 10.2474 145.81C9.22364 146.834 8.50177 148.234 8.08177 150.009C7.65537 151.89 7.44337 153.812 7.44981 155.74C7.44981 157.876 7.72084 159.713 8.2629 161.253C9.0504 163.269 10.3143 164.516 12.0547 164.994L12.7753 165.175L13.5884 165.22L26.6333 165.265V170.906H15.1653Z" fill="white"/>
<path d="M17.4687 282.548V309.268H10.3812V282.548H0V276.906H27.9405V282.548H17.4687Z" fill="white"/>
<path d="M30.1513 430.299V433.233C30.1513 433.955 30.1363 434.451 30.1061 434.723C30.0675 435.102 30.007 435.479 29.9249 435.851C29.917 436.274 29.8868 436.696 29.8344 437.115C29.7438 437.509 29.6552 437.958 29.5647 438.47C29.5377 438.639 29.4921 438.806 29.4288 438.966C29.3684 439.206 29.3232 439.371 29.293 439.462C29.2032 439.781 29.0665 440.085 28.8874 440.363C28.3818 441.623 27.5945 442.751 26.586 443.659C24.5686 445.284 22.8079 446.383 21.3038 446.955C19.6802 447.467 17.5743 447.722 14.9861 447.721H0V415.268H14.805C20.1311 415.268 24.0876 416.742 26.6745 419.692C28.9911 422.461 30.15 425.591 30.1513 429.081V430.299ZM22.6583 431.067C22.6583 430.315 22.6432 429.743 22.613 429.35C22.552 428.628 22.4929 428.073 22.4319 427.681C22.2206 426.086 21.8445 424.778 21.3038 423.755C20.6108 422.491 19.6783 421.693 18.5062 421.361L16.7009 421.001L14.7144 420.91H6.8158V442.08H14.7144L16.5198 442.035L17.3328 441.944L18.1006 441.809C19.3331 441.539 20.3562 440.772 21.1699 439.507L21.9358 437.747C21.9572 437.624 21.9875 437.503 22.0263 437.385C22.0874 437.054 22.1326 436.814 22.1622 436.662C22.2527 436.243 22.3591 435.609 22.4772 434.768C22.5382 434.286 22.5973 433.699 22.6583 432.996V431.057V431.067Z" fill="white"/>
<path d="M27.1293 586.174L24.1506 578.411H10.0229L7.22529 586.174H0L13.6296 553.721H20.851L34.709 586.174H27.1293ZM17.0198 560.267L12.2358 572.67H21.9397L17.0198 560.267Z" fill="white"/>
<path d="M28.4799 721.703C27.1858 723.088 25.5156 724.137 23.4694 724.853C21.4534 725.576 19.0312 725.937 16.2028 725.936C10.7257 725.936 6.64846 724.506 3.97097 721.648C1.32366 718.821 0 714.593 0 708.965C0 703.453 1.32366 699.285 3.97097 696.461C6.61828 693.604 10.2893 692.175 14.9841 692.174C19.6789 692.172 23.245 692.85 25.6823 694.205C28.4504 695.712 30.3758 698.255 31.4586 701.834C31.8084 703.199 32.0649 704.586 32.2264 705.986C32.4165 707.785 32.5072 709.593 32.4981 711.402C32.4981 715.412 31.1587 718.846 28.4799 721.703ZM23.245 701.212C21.7711 698.924 19.4237 697.781 16.2028 697.781C13.1329 697.781 10.8307 698.909 9.29644 701.167C8.03513 703.063 7.40379 705.32 7.40248 707.937C7.40248 710.677 7.68797 713.053 8.2589 715.068C8.50795 716.013 8.90675 716.913 9.44016 717.732C10.0463 718.523 10.859 719.132 11.7889 719.492L14.0451 720.124C14.9467 720.302 16.3308 720.392 18.1971 720.394C20.0031 720.394 21.6733 719.265 23.2076 717.009C24.44 715.055 25.0569 712.422 25.0582 709.111C25.053 705.68 24.4486 703.047 23.245 701.212Z" fill="white"/>
</g>
</svg>
