<svg width="40" height="40" viewBox="0 0 40 40" fill="none" xmlns="http://www.w3.org/2000/svg">
<circle opacity="0.3" cx="20" cy="20" r="20" fill="url(#paint0_linear_63_189)"/>
<path fill-rule="evenodd" clip-rule="evenodd" d="M28.68 23.6552C28.3955 22.1216 27.758 20.7246 26.9454 19.3999C26.4031 18.5205 25.7814 17.6925 25.0881 16.9264C24.0082 15.7284 22.8122 14.681 21.3469 13.9792C21.2142 13.9129 21.2461 13.8737 21.325 13.7961L21.396 13.726C21.5287 13.5953 21.6614 13.4646 21.7807 13.3205C22.2623 12.7381 22.6278 12.0854 22.9369 11.4002C23.1485 10.9286 23.319 10.443 23.3714 9.92229C23.4125 9.51169 23.2838 9.35382 22.8805 9.35315C22.4825 9.35111 22.0858 9.39789 21.6991 9.49245C21.3536 9.57745 21.0131 9.6738 20.673 9.77004L20.6729 9.77004C20.3601 9.85856 20.0476 9.94698 19.7317 10.0264C19.3508 10.1249 18.9496 10.1113 18.5762 9.98729C18.341 9.91133 18.11 9.82275 17.8843 9.72196L17.7867 9.67783C17.4522 9.52631 17.1182 9.37496 16.7434 9.33325H16.2904C15.9063 9.42612 15.7026 9.65298 15.6668 10.0437C15.6466 10.2206 15.654 10.3997 15.6887 10.5743C15.9872 11.9335 16.7282 13.0114 17.7888 13.885L17.791 13.8868C17.9772 14.0396 17.981 14.0427 17.7623 14.1649C17.5285 14.295 17.3022 14.4381 17.0844 14.5934C16.1631 15.2557 15.3304 16.0332 14.6068 16.9071C13.2331 18.5462 12.1525 20.3505 11.5475 22.4207C11.2451 23.4535 11.1137 24.5076 11.259 25.5802C11.399 26.611 11.7233 27.3711 12.3906 28.1048C12.8949 28.6506 13.5077 29.085 14.1896 29.3804C16.1258 30.2327 21.1333 31.8838 26.4924 29.1953C27.6273 28.4961 28.3829 27.5124 28.6741 26.1984C28.8605 25.3513 28.8379 24.5009 28.68 23.6552ZM21.9094 25.3268C21.5167 25.6286 21.0643 25.7745 20.5828 25.8329C20.4634 25.8468 20.4375 25.8893 20.4435 25.9974C20.4531 26.1347 20.4531 26.2726 20.4435 26.41C20.4183 26.7237 20.1987 26.9274 19.9068 26.9187C19.6262 26.9108 19.4239 26.7012 19.4087 26.3934C19.4056 26.3303 19.4111 26.2617 19.4166 26.1936C19.4277 26.0547 19.4387 25.9177 19.3768 25.8322C19.318 25.7509 19.1934 25.7226 19.0652 25.6934C18.9925 25.6769 18.9186 25.6601 18.8548 25.6332C18.1251 25.34 17.6217 24.8306 17.4034 24.0618C17.3145 23.7487 17.4532 23.4834 17.743 23.3905C18.0223 23.3016 18.3022 23.4568 18.3938 23.7666C18.5264 24.227 18.8316 24.5142 19.2674 24.682C19.3669 24.7205 19.412 24.7119 19.4093 24.5858C19.404 24.3886 19.4058 24.1914 19.4076 23.9941C19.4084 23.8955 19.4093 23.7969 19.4093 23.6983C19.4093 23.6169 19.4086 23.5354 19.4079 23.4539V23.4539V23.4538C19.4061 23.2532 19.4043 23.0525 19.4133 22.8525C19.4193 22.7099 19.3775 22.6482 19.2355 22.6164C18.9686 22.554 18.7101 22.46 18.4654 22.3365C17.8346 22.0307 17.4412 21.5584 17.4266 20.8327C17.4127 20.1163 17.7351 19.581 18.3321 19.2036C18.6105 19.0259 18.923 18.9082 19.2495 18.858C19.3742 18.8381 19.4193 18.7877 19.4107 18.659C19.4001 18.5011 19.4033 18.3427 19.4199 18.1854C19.431 18.0643 19.4861 17.9515 19.5749 17.8684C19.6637 17.7854 19.78 17.7379 19.9015 17.735C20.0221 17.7289 20.1409 17.7659 20.2367 17.8392C20.3326 17.9126 20.3993 18.0177 20.4249 18.1356C20.4569 18.2979 20.4625 18.4644 20.4415 18.6285C20.4282 18.7897 20.4932 18.8348 20.6405 18.858C21.1446 18.9402 21.601 19.1326 21.9764 19.4901C22.2505 19.7435 22.4419 20.0736 22.5257 20.4374C22.5593 20.5652 22.542 20.7011 22.4774 20.8164C22.4128 20.9317 22.306 21.0175 22.1794 21.0556C22.1156 21.0774 22.048 21.0861 21.9807 21.0811C21.9134 21.0761 21.8478 21.0576 21.7879 21.0266C21.728 20.9956 21.675 20.9528 21.632 20.9008C21.589 20.8488 21.5571 20.7886 21.538 20.7239C21.4 20.247 21.0517 20.0327 20.6139 19.9094C20.5091 19.8802 20.4395 19.8735 20.4421 20.0307C20.4514 20.5873 20.4488 21.1445 20.4421 21.7017C20.4421 21.8131 20.4773 21.8576 20.5841 21.8814C20.9659 21.9635 21.3354 22.0951 21.6832 22.2728C22.9356 22.9308 22.8931 24.5726 21.9101 25.3268H21.9094ZM20.4461 22.9189C20.7044 22.9793 20.9552 23.0683 21.1937 23.1842C21.7244 23.4496 21.6687 24.1029 21.3927 24.3935C21.1572 24.6402 20.8554 24.7351 20.5304 24.7915C20.4607 24.8041 20.4455 24.7749 20.4455 24.7172L20.4461 22.9189ZM19.4039 20.9801C19.4044 20.9 19.4049 20.8199 19.4049 20.7399C19.4049 20.6588 19.4045 20.5781 19.4042 20.4976C19.4034 20.3372 19.4027 20.1774 19.4049 20.0162C19.4069 19.918 19.385 19.8729 19.2775 19.9074C19.0467 19.9817 18.8278 20.0745 18.66 20.2583C18.3336 20.6152 18.4059 21.1173 18.8251 21.3521C18.9207 21.4068 19.0228 21.4477 19.125 21.4888C19.1754 21.509 19.2258 21.5292 19.2755 21.5511C19.3684 21.5936 19.4082 21.573 19.4049 21.4609C19.4018 21.3008 19.4028 21.1404 19.4039 20.9801Z" fill="url(#paint1_linear_63_189)"/>
<defs>
<linearGradient id="paint0_linear_63_189" x1="47.0588" y1="-1.42977e-06" x2="-8.21814" y2="8.13316" gradientUnits="userSpaceOnUse">
<stop stop-color="#00F2E6"/>
<stop offset="1" stop-color="#00B4F0"/>
</linearGradient>
<linearGradient id="paint1_linear_63_189" x1="31.9134" y1="9.33325" x2="7.41681" y2="12.3077" gradientUnits="userSpaceOnUse">
<stop stop-color="#00F2E6"/>
<stop offset="1" stop-color="#00B4F0"/>
</linearGradient>
</defs>
</svg>
