<svg width="48" height="48" viewBox="0 0 48 48" fill="none" xmlns="http://www.w3.org/2000/svg">
<rect opacity="0.2" width="48" height="48" rx="12" fill="url(#paint0_linear_9_2203)"/>
<path fill-rule="evenodd" clip-rule="evenodd" d="M24.0003 23.5712C23.6182 23.5817 23.239 23.503 22.8926 23.3415L13.3828 18.5907C13.4757 18.1141 13.7102 17.6765 14.0557 17.3353C14.5169 16.8736 15.1425 16.6139 15.7952 16.6133H32.2054C32.858 16.6139 33.4837 16.8736 33.9449 17.3353C34.2904 17.6765 34.5249 18.1141 34.6177 18.5907L25.108 23.3415C24.7616 23.503 24.3823 23.5817 24.0003 23.5712ZM24.0248 25.2041C24.6496 25.2041 25.2674 25.0727 25.8381 24.8184L34.6668 20.404V28.921C34.6668 29.5738 34.4075 30.1999 33.9459 30.6615C33.4842 31.1232 32.8581 31.3825 32.2053 31.3825H15.795C15.1422 31.3825 14.5161 31.1232 14.0545 30.6615C13.5928 30.1999 13.3335 29.5738 13.3335 28.921V20.404L22.2114 24.8184C22.7822 25.0727 23.4 25.2041 24.0248 25.2041Z" fill="url(#paint1_linear_9_2203)"/>
<defs>
<linearGradient id="paint0_linear_9_2203" x1="56.4706" y1="-1.71573e-06" x2="-9.86176" y2="9.7598" gradientUnits="userSpaceOnUse">
<stop stop-color="#00F2E6"/>
<stop offset="1" stop-color="#00B4F0"/>
</linearGradient>
<linearGradient id="paint1_linear_9_2203" x1="38.4315" y1="16.6133" x2="9.61391" y2="22.7378" gradientUnits="userSpaceOnUse">
<stop stop-color="#00F2E6"/>
<stop offset="1" stop-color="#00B4F0"/>
</linearGradient>
</defs>
</svg>
