<svg width="325" height="64" viewBox="0 0 325 64" fill="none" xmlns="http://www.w3.org/2000/svg">
<g clip-path="url(#clip0_9_773)">
<path d="M119.79 31.193V34.1264C119.79 34.8483 119.775 35.3451 119.745 35.6168C119.706 35.9958 119.646 36.3724 119.566 36.7449C119.557 37.1674 119.527 37.5893 119.475 38.0088C119.385 38.4026 119.294 38.8541 119.204 39.3633C119.177 39.5332 119.131 39.6996 119.068 39.8594C119.009 40.0996 118.963 40.265 118.934 40.3556C118.842 40.6742 118.705 40.9779 118.526 41.2573C118.021 42.5174 117.234 43.6449 116.225 44.5529C114.209 46.1778 112.449 47.2764 110.945 47.8486C109.319 48.3605 107.212 48.6158 104.625 48.6145H89.6389V16.1616H104.444C109.771 16.1616 113.729 17.6362 116.315 20.5854C118.632 23.3548 119.79 26.4844 119.79 29.9744V31.193ZM112.309 31.9608C112.309 31.2088 112.294 30.6365 112.264 30.2441C112.203 29.5215 112.142 28.9664 112.083 28.5746C111.873 26.9799 111.497 25.6713 110.955 24.6489C110.262 23.385 109.328 22.587 108.155 22.2549L106.35 21.8946L104.363 21.8041H96.4547V42.974H104.353L106.159 42.9287L106.972 42.8381L107.74 42.7023C108.972 42.4332 109.995 41.6661 110.809 40.4009L111.577 38.6408C111.598 38.5182 111.628 38.3972 111.665 38.2785C111.726 37.9478 111.772 37.7076 111.801 37.556C111.892 37.1367 111.998 36.5027 112.118 35.6621C112.177 35.1804 112.238 34.5898 112.299 33.8902V31.951L112.309 31.9608Z" fill="white"/>
<path d="M146.51 48.6144L143.622 48.4806L142.584 48.4353C142.294 48.4277 142.005 48.382 141.726 48.2994C141.6 48.2728 141.478 48.227 141.366 48.1636C141.228 48.1445 141.093 48.1142 140.96 48.073C137.739 47.2606 135.272 45.3503 133.558 42.342C132.1 39.8172 131.336 36.9514 131.345 34.0359C131.345 31.0276 131.586 28.4998 132.067 26.4523C132.488 24.4816 133.318 22.6214 134.505 20.9929C135.742 19.2805 137.475 17.9887 139.47 17.2917C140.602 16.9102 141.765 16.6231 142.945 16.4333C144.209 16.2522 149.219 16.1616 157.976 16.1616V21.7135H146.782C144.616 21.7135 142.886 22.3153 141.592 23.5188C140.568 24.5426 139.846 25.9424 139.426 27.7182C139 29.5985 138.788 31.5211 138.795 33.4492C138.795 35.5846 139.066 37.4221 139.608 38.9617C140.395 40.9777 141.659 42.2245 143.399 42.7023L144.12 42.8834L144.933 42.9287L157.978 42.974V48.6144H146.51Z" fill="white"/>
<path d="M186.141 21.8944V48.6142H179.054V21.8944H168.672V16.252H196.613V21.8944H186.141Z" fill="white"/>
<path d="M239.13 31.1927V34.1261C239.13 34.848 239.115 35.3448 239.085 35.6165C239.046 35.9957 238.986 36.3724 238.903 36.7446C238.896 37.1672 238.865 37.5891 238.813 38.0085C238.722 38.4023 238.634 38.8511 238.543 39.363C238.516 39.5329 238.471 39.6993 238.407 39.8591C238.347 40.0993 238.302 40.2647 238.271 40.3553C238.182 40.6742 238.045 40.9781 237.866 41.257C237.36 42.5167 236.573 43.6441 235.564 44.5526C233.547 46.1775 231.786 47.2761 230.282 47.8483C228.659 48.3602 226.553 48.6155 223.965 48.6142H208.979V16.1613H223.783C229.11 16.1613 233.066 17.6359 235.653 20.5851C237.97 23.3545 239.129 26.4841 239.13 29.9741V31.1927ZM231.637 31.9605C231.637 31.2085 231.622 30.6362 231.592 30.2438C231.53 29.5212 231.471 28.9661 231.41 28.5743C231.199 26.9796 230.823 25.671 230.282 24.6486C229.589 23.3847 228.657 22.5867 227.485 22.2546L225.679 21.8943L223.693 21.8038H215.794V42.9737H223.693L225.498 42.9284L226.311 42.8378L227.079 42.702C228.312 42.4329 229.335 41.6658 230.148 40.4006L230.914 38.6405C230.936 38.5177 230.966 38.3967 231.005 38.2782C231.066 37.9475 231.111 37.7073 231.141 37.5557C231.231 37.1364 231.338 36.5024 231.456 35.6618C231.517 35.1794 231.576 34.5927 231.637 33.8899V31.9507V31.9605ZM275.554 48.6142L272.575 40.8514H258.447L255.65 48.6142H248.424L262.054 16.1613H269.275L283.133 48.6142H275.554ZM265.444 22.7074L260.66 35.1105H270.364L265.444 22.7074ZM320.825 45.0488C319.531 46.4334 317.861 47.4834 315.814 48.1988C313.798 48.9219 311.376 49.2829 308.548 49.2816C303.071 49.2816 298.994 47.8523 296.316 44.9936C293.669 42.1665 292.345 37.9389 292.345 32.311C292.345 26.7985 293.669 22.6306 296.316 19.8074C298.963 16.9501 302.634 15.5208 307.329 15.5195C312.024 15.5182 315.59 16.1955 318.027 17.5513C320.795 19.058 322.721 21.601 323.804 25.1802C324.153 26.5452 324.41 27.9324 324.571 29.3322C324.762 31.1312 324.852 32.9393 324.843 34.7483C324.843 38.7579 323.504 42.1915 320.825 45.0488ZM315.59 24.558C314.116 22.2703 311.769 21.1265 308.548 21.1265C305.478 21.1265 303.176 22.2553 301.641 24.5128C300.38 26.4093 299.749 28.6662 299.748 31.2833C299.748 34.0225 300.033 36.3994 300.604 38.4141C300.853 39.3593 301.252 40.2586 301.785 41.0778C302.391 41.8693 303.204 42.4783 304.134 42.8378L306.39 43.4698C307.292 43.6483 308.676 43.7382 310.542 43.7395C312.348 43.7395 314.018 42.6114 315.553 40.3553C316.785 38.4009 317.402 35.7681 317.403 32.4566C317.398 29.0258 316.794 26.3929 315.59 24.558Z" fill="white"/>
<path d="M35.3646 0.38207C33.3182 0.123097 31.2573 -0.00448891 29.1945 0.000120548H0V24.6567L35.3646 0.38207Z" fill="white"/>
<path d="M0 58.8044L58.2158 18.8389C57.1002 15.2321 55.2299 11.8584 52.6049 8.71755C52.408 8.49508 52.2013 8.28442 51.9985 8.06982L0 43.7671V58.8044Z" fill="white"/>
<path d="M20.2722 63.9999H29.5509C34.6539 63.9999 38.808 63.4959 42.0131 62.4879C44.9793 61.3592 48.4509 59.1935 52.4277 55.9911C54.3256 54.3307 55.8389 52.1651 56.9677 49.4942C57.4428 48.6634 57.7099 48.0728 57.7689 47.7223C57.826 47.5451 57.9166 47.2183 58.0347 46.738C58.1594 46.4205 58.2492 46.0904 58.3025 45.7536C58.4797 44.7456 58.6575 43.8551 58.836 43.082C58.9384 42.2548 58.9982 41.4229 59.0152 40.5896C59.176 39.8554 59.295 39.1126 59.3715 38.3649C59.401 38.0774 59.4247 37.6601 59.4404 37.1167L20.2722 63.9999Z" fill="white"/>
</g>
<defs>
<clipPath id="clip0_9_773">
<rect width="324.843" height="64" fill="white"/>
</clipPath>
</defs>
</svg>
