<svg width="40" height="40" viewBox="0 0 40 40" fill="none" xmlns="http://www.w3.org/2000/svg">
<circle opacity="0.3" cx="20" cy="20" r="20" fill="url(#paint0_linear_63_444)"/>
<path fill-rule="evenodd" clip-rule="evenodd" d="M20.0002 30.6666C25.8912 30.6666 30.6668 25.891 30.6668 19.9999C30.6668 14.1089 25.8912 9.33325 20.0002 9.33325C14.1091 9.33325 9.3335 14.1089 9.3335 19.9999C9.3335 25.891 14.1091 30.6666 20.0002 30.6666ZM24.2498 15.2188C24.3177 15.2489 24.3786 15.2928 24.4286 15.3477L25.8569 16.872C25.949 16.9723 26.0002 17.1036 26.0002 17.2398C26.0002 17.376 25.949 17.5072 25.8569 17.6075L21.4226 22.3509L19.2908 24.6426C19.2409 24.6959 19.1807 24.7383 19.1138 24.7674C19.0468 24.7964 18.9747 24.8113 18.9017 24.8113C18.8288 24.8113 18.7566 24.7964 18.6897 24.7674C18.6228 24.7383 18.5625 24.6959 18.5127 24.6426L16.3808 22.3509L14.1423 19.9526C14.0509 19.854 14.0002 19.7245 14.0002 19.5901C14.0002 19.4557 14.0509 19.3263 14.1423 19.2277L15.624 17.7354C15.673 17.6771 15.7342 17.6303 15.8032 17.5981C15.8723 17.566 15.9475 17.5493 16.0237 17.5493C16.0999 17.5493 16.1751 17.566 16.2442 17.5981C16.3132 17.6303 16.3744 17.6771 16.4234 17.7354L18.5553 20.315V20.3789C18.6635 20.4704 18.8032 20.5161 18.9445 20.5061C19.0859 20.4962 19.2178 20.4314 19.3121 20.3256L23.6398 15.3477C23.6897 15.2928 23.7506 15.2489 23.8185 15.2188C23.8864 15.1888 23.9599 15.1733 24.0342 15.1733C24.1084 15.1733 24.1819 15.1888 24.2498 15.2188Z" fill="url(#paint1_linear_63_444)"/>
<defs>
<linearGradient id="paint0_linear_63_444" x1="47.0588" y1="-1.42977e-06" x2="-8.21814" y2="8.13316" gradientUnits="userSpaceOnUse">
<stop stop-color="#00F2E6"/>
<stop offset="1" stop-color="#00B4F0"/>
</linearGradient>
<linearGradient id="paint1_linear_63_444" x1="34.4315" y1="9.33325" x2="4.95049" y2="13.6709" gradientUnits="userSpaceOnUse">
<stop stop-color="#00F2E6"/>
<stop offset="1" stop-color="#00B4F0"/>
</linearGradient>
</defs>
</svg>
