<svg width="20" height="18" viewBox="0 0 20 18" fill="none" xmlns="http://www.w3.org/2000/svg">
<path d="M14.2144 0.600098C17.4333 0.600098 19.3332 2.45238 19.3332 5.62311H15.3841V5.65547C13.5514 5.65547 12.0656 7.10402 12.0656 8.8909C12.0656 10.6778 13.5514 12.1263 15.3841 12.1263H19.3332V12.4175C19.3332 15.5478 17.4333 17.4001 14.2144 17.4001H5.78532C2.56636 17.4001 0.666504 15.5478 0.666504 12.4175V5.58267C0.666504 2.45238 2.56636 0.600098 5.78532 0.600098H14.2144ZM18.6363 7.01435C19.0212 7.01435 19.3332 7.31854 19.3332 7.69379V10.0557C19.3287 10.4291 19.0193 10.7307 18.6363 10.7351H15.4588C14.531 10.7473 13.7196 10.1279 13.5092 9.2468C13.4038 8.69983 13.5517 8.13542 13.9134 7.70483C14.275 7.27424 14.8134 7.0215 15.3841 7.01435H18.6363ZM15.8321 8.10631H15.5252C15.3367 8.10415 15.1552 8.17563 15.0212 8.3048C14.8871 8.43397 14.8117 8.61008 14.8117 8.79384C14.8117 9.17935 15.1298 9.49311 15.5252 9.49754H15.8321C16.2262 9.49754 16.5456 9.18611 16.5456 8.80193C16.5456 8.41775 16.2262 8.10631 15.8321 8.10631ZM10.3566 4.23187H5.08843C4.6976 4.23185 4.37949 4.53839 4.37495 4.9194C4.37495 5.30491 4.69305 5.61868 5.08843 5.62311H10.3566C10.7506 5.62311 11.0701 5.31167 11.0701 4.92749C11.0701 4.54331 10.7506 4.23187 10.3566 4.23187Z" fill="url(#paint0_linear_9_2445)"/>
<defs>
<linearGradient id="paint0_linear_9_2445" x1="22.6273" y1="0.600097" x2="-3.04104" y2="4.79644" gradientUnits="userSpaceOnUse">
<stop stop-color="#00F2E6"/>
<stop offset="1" stop-color="#00B4F0"/>
</linearGradient>
</defs>
</svg>
